#!OML:ASF I:\Random Stuff\random\construction\7_22_03\Session 2\subj1.ASF
:FULLY-SPECIFIED
:DEGREES
697
root -10.0608 17.6967 -6.11776 -187.249 101.364 -203.585
lowerback 14.4016 1.3319 -2.8363
upperback 4.53179 1.44464 -2.80627
thorax -3.27319 0.809718 -1.58794
lowerneck -12.3105 4.00314 4.43604
upperneck 41.8166 8.29882 -2.37278
head 17.8974 4.24469 -0.221779
rclavicle -2.62396e-014 -3.18055e-015
rhumerus -27.888 36.2705 -93.5273
rradius 80.6312
rwrist 0.641894
rhand -47.5508 35.2538
rfingers 7.12502
rthumb -20.2367 6.288
lclavicle -2.62396e-014 -3.18055e-015
lhumerus 6.91955 -32.7628 76.9896
lradius 44.2237
lwrist -14.1493
lhand -21.6618 54.9891
lfingers 7.12502
lthumb 4.73535 84.9162
rfemur -20.3334 5.29334 15.3282
rtibia 5.62402
rfoot 0.472065 -9.49266
rtoes -23.0828
lfemur -30.9121 -2.81476 -9.03309
ltibia 27.6665
lfoot -13.4079 10.8014
ltoes -27.9804
698
root -10.0588 17.6957 -6.11776 -187.215 101.489 -203.58
lowerback 14.4274 1.28959 -3.05553
upperback 4.48457 1.35607 -2.69337
thorax -3.34452 0.764375 -1.33249
lowerneck -12.1913 4.12184 4.34985
upperneck 41.8051 8.55253 -2.45881
head 17.8748 4.32232 -0.203599
rclavicle 8.74653e-015 5.24792e-014
rhumerus -28.0384 36.7221 -93.7164
rradius 81.0038
rwrist 1.15159
rhand -48.7758 36.2476
rfingers 7.12502
rthumb -21.4136 7.41095
lclavicle 8.74653e-015 5.24792e-014
lhumerus 6.62124 -32.3599 77.1475
lradius 44.3371
lwrist -14.1495
lhand -21.7207 55.0179
lfingers 7.12502
lthumb 4.67846 84.9462
rfemur -20.4655 5.41911 15.3358
rtibia 5.79457
rfoot 0.349247 -9.52961
rtoes -22.7004
lfemur -30.9337 -2.70742 -9.00653
ltibia 27.7218
lfoot -13.3632 10.8505
ltoes -28.3968
699
root -10.0557 17.6951 -6.11954 -187.235 101.641 -203.65
lowerback 14.4675 1.49326 -2.78828
upperback 4.38775 1.64506 -2.90875
thorax -3.45476 0.908002 -1.76225
lowerneck -12.1062 3.94014 4.65171
upperneck 41.8751 8.12303 -2.26191
head 17.8728 4.23238 -0.246796
rclavicle -7.95139e-016 -6.36111e-015
rhumerus -28.2756 36.1239 -94.0615
rradius 81.0395
rwrist 1.70206
rhand -49.8542 37.1812
rfingers 7.12502
rthumb -22.4492 8.46594
lclavicle -7.95139e-016 -6.36111e-015
lhumerus 6.6904 -33.1756 76.9812
lradius 44.4077
lwrist -13.9309
lhand -21.718 55.0261
lfingers 7.12502
lthumb 4.68109 84.9544
rfemur -20.4068 5.56228 15.3473
rtibia 5.5219
rfoot 0.483259 -9.50656
rtoes -22.5697
lfemur -30.9868 -2.49451 -8.99393
ltibia 27.8122
lfoot -13.3674 10.8185
ltoes -28.7731
700
root -10.0517 17.6958 -6.1229 -187.419 101.753 -203.876
lowerback 14.4769 1.55475 -2.68746
upperback 4.3268 1.73289 -2.95171
thorax -3.51913 0.950655 -1.88112
lowerneck -12.0778 3.88885 4.68416
upperneck 41.9012 8.00668 -2.17719
head 17.8697 4.20471 -0.235415
rclavicle 4.13472e-014 1.74931e-014
rhumerus -28.4503 36.1924 -94.2813
rradius 80.6857
rwrist 2.27245
rhand -50.8593 39.0514
rfingers 7.12502
rthumb -23.4136 10.4557
lclavicle 4.13472e-014 1.74931e-014
lhumerus 6.61929 -33.2999 77.0023
lradius 44.4426
lwrist -13.8883
lhand -21.6664 54.9934
lfingers 7.12502
lthumb 4.73092 84.9206
rfemur -20.3836 5.6624 15.3874
rtibia 5.39456
rfoot 0.510995 -9.51629
rtoes -22.2654
lfemur -31.0316 -2.34919 -8.94676
ltibia 27.8961
lfoot -13.4023 10.7812
ltoes -28.8202
701
root -10.0581 17.7001 -6.11797 -186.75 102.582 -203.661
lowerback 13.9782 1.88955 -2.82198
upperback 4.15359 2.15733 -2.99037
thorax -3.43013 1.15498 -1.90339
lowerneck -12.1407 3.81744 4.6379
upperneck 41.9433 7.85148 -2.03326
head 17.8893 4.15442 -0.18683
rclavicle 3.81667e-014 -3.18055e-015
rhumerus -28.5008 36.2262 -94.4455
rradius 79.8781
rwrist 2.75859
rhand -52.1645 38.6638
rfingers 7.12502
rthumb -24.6652 10.2334
lclavicle 3.81667e-014 -3.18055e-015
lhumerus 6.5648 -33.3779 77.0369
lradius 44.4823
lwrist -13.9632
lhand -21.6418 54.9675
lfingers 7.12502
lthumb 4.75468 84.8942
rfemur -20.8919 6.44998 15.3741
rtibia 4.9507
rfoot 0.904332 -9.43525
rtoes -22.2098
lfemur -31.3551 -1.64736 -8.75702
ltibia 28.0188
lfoot -13.4582 10.9521
ltoes -28.7865
702
root -10.0457 17.6944 -6.12775 -187.646 101.993 -204.16
lowerback 14.4989 1.81576 -2.2886
upperback 4.2089 2.11373 -3.22197
thorax -3.62648 1.13823 -2.46036
lowerneck -12.1287 3.59655 4.85129
upperneck 41.9818 7.35511 -1.79263
head 17.8776 4.02785 -0.204387
rclavicle 5.56597e-015 -3.18055e-015
rhumerus -28.4617 35.5919 -94.6641
rradius 78.631
rwrist 3.12642
rhand -52.4145 36.6741
rfingers 7.12502
rthumb -24.9048 8.27665
lclavicle 5.56597e-015 -3.18055e-015
lhumerus 6.61961 -34.1013 76.9124
lradius 44.5549
lwrist -13.9613
lhand -21.6303 55.0441
lfingers 7.12502
lthumb 4.76577 84.9705
rfemur -20.1852 5.88678 15.4437
rtibia 4.85013
rfoot 0.759413 -9.47931
rtoes -22.2492
lfemur -31.0861 -2.11793 -8.84664
ltibia 28.0674
lfoot -13.5193 10.7019
ltoes -28.2221
703
root -10.0502 17.6989 -6.12261 -186.774 102.725 -203.686
lowerback 13.9829 1.91703 -2.91598
upperback 4.1294 2.17831 -2.98837
thorax -3.46118 1.16513 -1.85286
lowerneck -12.2331 3.77746 4.50889
upperneck 41.9221 7.77039 -1.9406
head 17.8824 4.11021 -0.134472
rclavicle -4.45278e-014 -1.27222e-014
rhumerus -27.938 36.5129 -94.3765
rradius 77.0756
rwrist 3.44731
rhand -51.9765 33.4812
rfingers 7.12502
rthumb -24.485 5.02632
lclavicle -4.45278e-014 -1.27222e-014
lhumerus 6.37609 -33.1414 77.1891
lradius 44.5798
lwrist -14.1278
lhand -21.6556 54.9839
lfingers 7.12502
lthumb 4.74136 84.9108
rfemur -20.6152 6.59463 15.3823
rtibia 4.39187
rfoot 1.22574 -9.37438
rtoes -22.8661
lfemur -31.3584 -1.46411 -8.75731
ltibia 28.1559
lfoot -13.5479 10.8033
ltoes -28.2139
704
root -10.0338 17.6938 -6.13938 -187.71 101.898 -204.2
lowerback 14.454 1.51804 -2.70391
upperback 4.2693 1.67859 -2.92658
thorax -3.56933 0.922563 -1.83656
lowerneck -12.2522 3.84258 4.33062
upperneck 41.9261 7.95265 -2.00834
head 17.8936 4.14362 -0.100049
rclavicle 1.82882e-014 -5.40694e-014
rhumerus -27.3966 36.6677 -94.0956
rradius 75.4677
rwrist 4.17486
rhand -50.4313 27.822
rfingers 7.12502
rthumb -23.003 -0.825401
lclavicle 1.82882e-014 -5.40694e-014
lhumerus 6.1589 -32.6781 77.3987
lradius 44.6088
lwrist -14.2193
lhand -21.6618 54.9588
lfingers 7.12502
lthumb 4.73537 84.8859
rfemur -19.883 5.78796 15.4054
rtibia 4.41253
rfoot 0.979678 -9.45302
rtoes -23.0639
lfemur -31.0964 -2.22521 -8.90113
ltibia 28.1645
lfoot -13.6311 10.6665
ltoes -28.1998
705
root -10.0368 17.6977 -6.13342 -186.862 102.803 -203.708
lowerback 13.9629 1.8265 -2.94746
upperback 4.11595 2.0561 -2.9224
thorax -3.46923 1.1039 -1.74488
lowerneck -12.1998 3.85223 4.26028
upperneck 41.9794 8.02352 -2.0419
head 17.9132 4.15906 -0.0903296
rclavicle 8.74653e-015 2.38542e-014
rhumerus -26.7323 36.2209 -93.7277
rradius 74.2881
rwrist 3.63518
rhand -46.411 21.426
rfingers 7.12502
rthumb -19.141 -7.65206
lclavicle 8.74653e-015 2.38542e-014
lhumerus 5.90025 -32.4523 77.6061
lradius 44.6941
lwrist -14.3244
lhand -21.6058 55.2346
lfingers 7.12502
lthumb 4.78942 85.1604
rfemur -20.4872 6.67084 15.3638
rtibia 4.33318
rfoot 1.2384 -9.36841
rtoes -23.144
lfemur -31.2018 -1.70517 -8.70062
ltibia 28.1831
lfoot -13.8004 11.1214
ltoes -28.3972
706
root -10.0305 17.6983 -6.13714 -186.035 102.865 -202.888
lowerback 13.8864 1.87287 -3.02881
upperback 4.07927 2.10471 -2.99866
thorax -3.46577 1.12814 -1.78532
lowerneck -12.1778 3.82551 4.16379
upperneck 42.0762 8.03728 -2.03144
head 17.959 4.15429 -0.0640103
rclavicle -2.38542e-015 -4.77083e-015
rhumerus -25.9111 35.556 -93.2863
rradius 73.3107
rwrist 1.77243
rhand -41.2549 16.3895
rfingers 7.12502
rthumb -14.1773 -13.1067
lclavicle -2.38542e-015 -4.77083e-015
lhumerus 5.72287 -32.4249 77.7795
lradius 44.7585
lwrist -14.3855
lhand -21.4861 55.4686
lfingers 7.12502
lthumb 4.90503 85.3918
rfemur -20.572 6.74283 15.1551
rtibia 4.42813
rfoot 1.21653 -9.36449
rtoes -23.0989
lfemur -31.1627 -1.75778 -8.87331
ltibia 28.1706
lfoot -13.8523 11.2621
ltoes -28.1912
707
root -10.0239 17.6988 -6.14114 -185.095 102.93 -201.922
lowerback 13.807 1.86751 -3.2608
upperback 4.09802 2.07194 -3.00094
thorax -3.41061 1.11242 -1.64826
lowerneck -12.2638 3.86609 3.95555
upperneck 42.1585 8.20396 -2.08903
head 18.0316 4.17793 -0.0179176
rclavicle 3.57812e-014 9.54166e-015
rhumerus -24.9038 35.3477 -92.7487
rradius 72.5008
rwrist -1.58292
rhand -35.9773 13.3728
rfingers 7.12502
rthumb -9.08794 -16.4114
lclavicle 3.57812e-014 9.54166e-015
lhumerus 5.65209 -32.324 77.8564
lradius 44.786
lwrist -14.2567
lhand -21.5052 55.8774
lfingers 7.12502
lthumb 4.88658 85.8011
rfemur -20.372 6.8181 14.9115
rtibia 4.01139
rfoot 1.45149 -9.32523
rtoes -23.3153
lfemur -31.1318 -1.69106 -9.12562
ltibia 28.2207
lfoot -13.8892 11.282
ltoes -28.2908
